<?xml version="1.0" encoding="utf-8"?>
<!-- Generator: Adobe Illustrator 27.3.1, SVG Export Plug-In . SVG Version: 6.00 Build 0)  -->
<svg version="1.1" id="Layer_1" xmlns="http://www.w3.org/2000/svg" xmlns:xlink="http://www.w3.org/1999/xlink" x="0px" y="0px"
	 viewBox="0 0 32 32" style="enable-background:new 0 0 32 32;" xml:space="preserve">
<style type="text/css">
	.st0{fill:#C679C6;}
	.st1{fill:#AA2E8B;}
</style>
<g>
	<g id="ab_00000093155811315253950040000006057753143022828676_">
		<g>
			<path class="st0" d="M12.4,27.1h2.5c0.3,0,0.6,0.3,0.6,0.6v0.1c0,0.3-0.3,0.6-0.6,0.6h-2.5c-0.3,0-0.6-0.3-0.6-0.6v-0.1
				C11.8,27.3,12,27.1,12.4,27.1z"/>
			<path class="st0" d="M12.4,30.2h2.5c0.3,0,0.6-0.3,0.6-0.6v-0.1c0-0.3-0.3-0.6-0.6-0.6h-2.5c-0.3,0-0.6,0.3-0.6,0.6v0.1
				C11.8,29.9,12,30.2,12.4,30.2z"/>
			<path class="st0" d="M12.4,23.5h2.5c0.3,0,0.6,0.3,0.6,0.6v0.1c0,0.3-0.3,0.6-0.6,0.6h-2.5c-0.3,0-0.6-0.3-0.6-0.6V24
				C11.8,23.7,12,23.5,12.4,23.5z"/>
			<path class="st0" d="M12.4,26.6h2.5c0.3,0,0.6-0.3,0.6-0.6v-0.1c0-0.3-0.3-0.6-0.6-0.6h-2.5c-0.3,0-0.6,0.3-0.6,0.6V26
				C11.8,26.3,12,26.6,12.4,26.6z"/>
			<path class="st0" d="M12.4,21.6h2.5c0.3,0,0.6,0.3,0.6,0.6v0.1c0,0.3-0.3,0.6-0.6,0.6h-2.5c-0.3,0-0.6-0.3-0.6-0.6v-0.1
				C11.8,21.9,12,21.6,12.4,21.6z"/>
			<path class="st0" d="M12.4,18h2.5c0.3,0,0.6,0.3,0.6,0.6v0.1c0,0.3-0.3,0.6-0.6,0.6h-2.5c-0.3,0-0.6-0.3-0.6-0.6v-0.1
				C11.8,18.3,12,18,12.4,18z"/>
			<path class="st0" d="M12.4,21.1h2.5c0.3,0,0.6-0.3,0.6-0.6v-0.1c0-0.3-0.3-0.6-0.6-0.6h-2.5c-0.3,0-0.6,0.3-0.6,0.6v0.1
				C11.8,20.9,12,21.1,12.4,21.1z"/>
			<path class="st0" d="M12.4,16.2h2.5c0.3,0,0.6,0.3,0.6,0.6v0.1c0,0.3-0.3,0.6-0.6,0.6h-2.5c-0.3,0-0.6-0.3-0.6-0.6v-0.1
				C11.8,16.5,12,16.2,12.4,16.2z"/>
			<path class="st0" d="M12.4,12.6h2.5c0.3,0,0.6,0.3,0.6,0.6v0.1c0,0.3-0.3,0.6-0.6,0.6h-2.5c-0.3,0-0.6-0.3-0.6-0.6v-0.1
				C11.8,12.9,12,12.6,12.4,12.6z"/>
			<path class="st0" d="M12.4,15.7h2.5c0.3,0,0.6-0.3,0.6-0.6V15c0-0.3-0.3-0.6-0.6-0.6h-2.5c-0.3,0-0.6,0.3-0.6,0.6v0.1
				C11.8,15.4,12,15.7,12.4,15.7z"/>
			<path class="st0" d="M7.5,9h5.9C13.7,9,14,9.2,14,9.6v0.1c0,0.3-0.3,0.6-0.6,0.6H7.5c-0.3,0-0.6-0.3-0.6-0.6V9.6
				C6.9,9.2,7.1,9,7.5,9z"/>
			<path class="st0" d="M9.5,12.1h5.4c0.3,0,0.6-0.3,0.6-0.6v-0.1c0-0.3-0.3-0.6-0.6-0.6H9.5c-0.3,0-0.6,0.3-0.6,0.6v0.1
				C8.9,11.8,9.2,12.1,9.5,12.1z"/>
			<path class="st0" d="M3.4,5.4h6.3c0.3,0,0.6,0.3,0.6,0.6v0.1c0,0.3-0.3,0.6-0.6,0.6H3.4c-0.3,0-0.6-0.3-0.6-0.6V6
				C2.8,5.6,3.1,5.4,3.4,5.4z"/>
			<path class="st0" d="M5.3,8.5h6.3c0.3,0,0.6-0.3,0.6-0.6V7.8c0-0.3-0.3-0.6-0.6-0.6H5.3C5,7.2,4.7,7.4,4.7,7.8v0.1
				C4.7,8.2,5,8.5,5.3,8.5z"/>
			<path class="st0" d="M2.9,1.7h4.2c0.3,0,0.6,0.3,0.6,0.6v0.1C7.7,2.8,7.5,3,7.1,3H2.9C2.6,3,2.3,2.8,2.3,2.5V2.3
				C2.3,2,2.6,1.7,2.9,1.7z"/>
			<path class="st0" d="M1.8,4.9h6.4c0.3,0,0.6-0.3,0.6-0.6V4.1c0-0.3-0.3-0.6-0.6-0.6H1.8c-0.3,0-0.6,0.3-0.6,0.6v0.1
				C1.2,4.6,1.5,4.9,1.8,4.9z"/>
		</g>
		<g>
			<path class="st0" d="M19.8,27.1h-2.5c-0.3,0-0.6,0.3-0.6,0.6v0.1c0,0.3,0.3,0.6,0.6,0.6h2.5c0.3,0,0.6-0.3,0.6-0.6v-0.1
				C20.4,27.3,20.1,27.1,19.8,27.1z"/>
			<path class="st0" d="M19.8,30.2h-2.5c-0.3,0-0.6-0.3-0.6-0.6v-0.1c0-0.3,0.3-0.6,0.6-0.6h2.5c0.3,0,0.6,0.3,0.6,0.6v0.1
				C20.4,29.9,20.1,30.2,19.8,30.2z"/>
			<path class="st0" d="M19.8,23.5h-2.5c-0.3,0-0.6,0.3-0.6,0.6v0.1c0,0.3,0.3,0.6,0.6,0.6h2.5c0.3,0,0.6-0.3,0.6-0.6V24
				C20.4,23.7,20.1,23.5,19.8,23.5z"/>
			<path class="st0" d="M19.8,26.6h-2.5c-0.3,0-0.6-0.3-0.6-0.6v-0.1c0-0.3,0.3-0.6,0.6-0.6h2.5c0.3,0,0.6,0.3,0.6,0.6V26
				C20.4,26.3,20.1,26.6,19.8,26.6z"/>
			<path class="st0" d="M19.8,21.6h-2.5c-0.3,0-0.6,0.3-0.6,0.6v0.1c0,0.3,0.3,0.6,0.6,0.6h2.5c0.3,0,0.6-0.3,0.6-0.6v-0.1
				C20.4,21.9,20.1,21.6,19.8,21.6z"/>
			<path class="st0" d="M19.8,18h-2.5c-0.3,0-0.6,0.3-0.6,0.6v0.1c0,0.3,0.3,0.6,0.6,0.6h2.5c0.3,0,0.6-0.3,0.6-0.6v-0.1
				C20.4,18.3,20.1,18,19.8,18z"/>
			<path class="st0" d="M19.8,21.1h-2.5c-0.3,0-0.6-0.3-0.6-0.6v-0.1c0-0.3,0.3-0.6,0.6-0.6h2.5c0.3,0,0.6,0.3,0.6,0.6v0.1
				C20.4,20.9,20.1,21.1,19.8,21.1z"/>
			<path class="st0" d="M19.8,16.2h-2.5c-0.3,0-0.6,0.3-0.6,0.6v0.1c0,0.3,0.3,0.6,0.6,0.6h2.5c0.3,0,0.6-0.3,0.6-0.6v-0.1
				C20.4,16.5,20.1,16.2,19.8,16.2z"/>
			<path class="st0" d="M19.8,12.6h-2.5c-0.3,0-0.6,0.3-0.6,0.6v0.1c0,0.3,0.3,0.6,0.6,0.6h2.5c0.3,0,0.6-0.3,0.6-0.6v-0.1
				C20.4,12.9,20.1,12.6,19.8,12.6z"/>
			<path class="st0" d="M19.8,15.7h-2.5c-0.3,0-0.6-0.3-0.6-0.6V15c0-0.3,0.3-0.6,0.6-0.6h2.5c0.3,0,0.6,0.3,0.6,0.6v0.1
				C20.4,15.4,20.1,15.7,19.8,15.7z"/>
			<path class="st0" d="M24.7,9h-5.9c-0.3,0-0.6,0.3-0.6,0.6v0.1c0,0.3,0.3,0.6,0.6,0.6h5.9c0.3,0,0.6-0.3,0.6-0.6V9.6
				C25.3,9.2,25,9,24.7,9z"/>
			<path class="st0" d="M22.6,12.1h-5.4c-0.3,0-0.6-0.3-0.6-0.6v-0.1c0-0.3,0.3-0.6,0.6-0.6h5.4c0.3,0,0.6,0.3,0.6,0.6v0.1
				C23.2,11.8,23,12.1,22.6,12.1z"/>
			<path class="st0" d="M28.8,5.4h-6.3c-0.3,0-0.6,0.3-0.6,0.6v0.1c0,0.3,0.3,0.6,0.6,0.6h6.3c0.3,0,0.6-0.3,0.6-0.6V6
				C29.3,5.6,29.1,5.4,28.8,5.4z"/>
			<path class="st0" d="M26.9,8.5h-6.3c-0.3,0-0.6-0.3-0.6-0.6V7.8c0-0.3,0.3-0.6,0.6-0.6h6.3c0.3,0,0.6,0.3,0.6,0.6v0.1
				C27.5,8.2,27.2,8.5,26.9,8.5z"/>
			<path class="st0" d="M29.3,1.7H25c-0.3,0-0.6,0.3-0.6,0.6v0.1C24.4,2.8,24.7,3,25,3h4.2c0.3,0,0.6-0.3,0.6-0.6V2.3
				C29.9,2,29.6,1.7,29.3,1.7z"/>
			<path class="st0" d="M30.3,4.9H24c-0.3,0-0.6-0.3-0.6-0.6V4.1c0-0.3,0.3-0.6,0.6-0.6h6.4c0.3,0,0.6,0.3,0.6,0.6v0.1
				C30.9,4.6,30.7,4.9,30.3,4.9z"/>
		</g>
	</g>
	<g id="ab_00000049205013115705546170000000295495015704042904_">
		<g>
			<path class="st1" d="M12.2,27.1h2.5c0.3,0,0.6,0.3,0.6,0.6v0.1c0,0.3-0.3,0.6-0.6,0.6h-2.5c-0.3,0-0.6-0.3-0.6-0.6v-0.1
				C11.6,27.4,11.9,27.1,12.2,27.1z"/>
			<path class="st1" d="M12.2,30.3h2.5c0.3,0,0.6-0.3,0.6-0.6v-0.1c0-0.3-0.3-0.6-0.6-0.6h-2.5c-0.3,0-0.6,0.3-0.6,0.6v0.1
				C11.6,30,11.9,30.3,12.2,30.3z"/>
			<path class="st1" d="M12.2,23.5h2.5c0.3,0,0.6,0.3,0.6,0.6v0.1c0,0.3-0.3,0.6-0.6,0.6h-2.5c-0.3,0-0.6-0.3-0.6-0.6v-0.1
				C11.6,23.8,11.9,23.5,12.2,23.5z"/>
			<path class="st1" d="M12.2,26.6h2.5c0.3,0,0.6-0.3,0.6-0.6v-0.1c0-0.3-0.3-0.6-0.6-0.6h-2.5c-0.3,0-0.6,0.3-0.6,0.6V26
				C11.6,26.4,11.9,26.6,12.2,26.6z"/>
			<path class="st1" d="M12.2,21.7h2.5c0.3,0,0.6,0.3,0.6,0.6v0.1c0,0.3-0.3,0.6-0.6,0.6h-2.5c-0.3,0-0.6-0.3-0.6-0.6v-0.1
				C11.6,22,11.9,21.7,12.2,21.7z"/>
			<path class="st1" d="M12.2,18.1h2.5c0.3,0,0.6,0.3,0.6,0.6v0.1c0,0.3-0.3,0.6-0.6,0.6h-2.5c-0.3,0-0.6-0.3-0.6-0.6v-0.1
				C11.6,18.4,11.9,18.1,12.2,18.1z"/>
			<path class="st1" d="M12.2,21.2h2.5c0.3,0,0.6-0.3,0.6-0.6v-0.1c0-0.3-0.3-0.6-0.6-0.6h-2.5c-0.3,0-0.6,0.3-0.6,0.6v0.1
				C11.6,20.9,11.9,21.2,12.2,21.2z"/>
			<path class="st1" d="M12.2,16.3h2.5c0.3,0,0.6,0.3,0.6,0.6V17c0,0.3-0.3,0.6-0.6,0.6h-2.5c-0.3,0-0.6-0.3-0.6-0.6v-0.1
				C11.6,16.6,11.9,16.3,12.2,16.3z"/>
			<path class="st1" d="M12.2,12.7h2.5c0.3,0,0.6,0.3,0.6,0.6v0.1c0,0.3-0.3,0.6-0.6,0.6h-2.5c-0.3,0-0.6-0.3-0.6-0.6v-0.1
				C11.6,12.9,11.9,12.7,12.2,12.7z"/>
			<path class="st1" d="M12.2,15.8h2.5c0.3,0,0.6-0.3,0.6-0.6v-0.1c0-0.3-0.3-0.6-0.6-0.6h-2.5c-0.3,0-0.6,0.3-0.6,0.6v0.1
				C11.6,15.5,11.9,15.8,12.2,15.8z"/>
			<path class="st1" d="M7.3,9.1h5.9c0.3,0,0.6,0.3,0.6,0.6v0.1c0,0.3-0.3,0.6-0.6,0.6H7.3c-0.3,0-0.6-0.3-0.6-0.6V9.6
				C6.7,9.3,7,9.1,7.3,9.1z"/>
			<path class="st1" d="M9.4,12.2h5.4c0.3,0,0.6-0.3,0.6-0.6v-0.1c0-0.3-0.3-0.6-0.6-0.6H9.4c-0.3,0-0.6,0.3-0.6,0.6v0.1
				C8.8,11.9,9,12.2,9.4,12.2z"/>
			<path class="st1" d="M3.2,5.4h6.3c0.3,0,0.6,0.3,0.6,0.6v0.1c0,0.3-0.3,0.6-0.6,0.6H3.2c-0.3,0-0.6-0.3-0.6-0.6V6
				C2.7,5.7,2.9,5.4,3.2,5.4z"/>
			<path class="st1" d="M5.1,8.5h6.3c0.3,0,0.6-0.3,0.6-0.6V7.8c0-0.3-0.3-0.6-0.6-0.6H5.1c-0.3,0-0.6,0.3-0.6,0.6V8
				C4.5,8.3,4.8,8.5,5.1,8.5z"/>
			<path class="st1" d="M2.7,1.8H7c0.3,0,0.6,0.3,0.6,0.6v0.1c0,0.3-0.3,0.6-0.6,0.6H2.7c-0.3,0-0.6-0.3-0.6-0.6V2.4
				C2.1,2.1,2.4,1.8,2.7,1.8z"/>
			<path class="st1" d="M1.7,4.9H8c0.3,0,0.6-0.3,0.6-0.6V4.2c0-0.3-0.3-0.6-0.6-0.6H1.7c-0.3,0-0.6,0.3-0.6,0.6v0.1
				C1.1,4.7,1.3,4.9,1.7,4.9z"/>
		</g>
		<g>
			<path class="st1" d="M19.6,27.1h-2.5c-0.3,0-0.6,0.3-0.6,0.6v0.1c0,0.3,0.3,0.6,0.6,0.6h2.5c0.3,0,0.6-0.3,0.6-0.6v-0.1
				C20.2,27.4,20,27.1,19.6,27.1z"/>
			<path class="st1" d="M19.6,30.3h-2.5c-0.3,0-0.6-0.3-0.6-0.6v-0.1c0-0.3,0.3-0.6,0.6-0.6h2.5c0.3,0,0.6,0.3,0.6,0.6v0.1
				C20.2,30,20,30.3,19.6,30.3z"/>
			<path class="st1" d="M19.6,23.5h-2.5c-0.3,0-0.6,0.3-0.6,0.6v0.1c0,0.3,0.3,0.6,0.6,0.6h2.5c0.3,0,0.6-0.3,0.6-0.6v-0.1
				C20.2,23.8,20,23.5,19.6,23.5z"/>
			<path class="st1" d="M19.6,26.6h-2.5c-0.3,0-0.6-0.3-0.6-0.6v-0.1c0-0.3,0.3-0.6,0.6-0.6h2.5c0.3,0,0.6,0.3,0.6,0.6V26
				C20.2,26.4,20,26.6,19.6,26.6z"/>
			<path class="st1" d="M19.6,21.7h-2.5c-0.3,0-0.6,0.3-0.6,0.6v0.1c0,0.3,0.3,0.6,0.6,0.6h2.5c0.3,0,0.6-0.3,0.6-0.6v-0.1
				C20.2,22,20,21.7,19.6,21.7z"/>
			<path class="st1" d="M19.6,18.1h-2.5c-0.3,0-0.6,0.3-0.6,0.6v0.1c0,0.3,0.3,0.6,0.6,0.6h2.5c0.3,0,0.6-0.3,0.6-0.6v-0.1
				C20.2,18.4,20,18.1,19.6,18.1z"/>
			<path class="st1" d="M19.6,21.2h-2.5c-0.3,0-0.6-0.3-0.6-0.6v-0.1c0-0.3,0.3-0.6,0.6-0.6h2.5c0.3,0,0.6,0.3,0.6,0.6v0.1
				C20.2,20.9,20,21.2,19.6,21.2z"/>
			<path class="st1" d="M19.6,16.3h-2.5c-0.3,0-0.6,0.3-0.6,0.6V17c0,0.3,0.3,0.6,0.6,0.6h2.5c0.3,0,0.6-0.3,0.6-0.6v-0.1
				C20.2,16.6,20,16.3,19.6,16.3z"/>
			<path class="st1" d="M19.6,12.7h-2.5c-0.3,0-0.6,0.3-0.6,0.6v0.1c0,0.3,0.3,0.6,0.6,0.6h2.5c0.3,0,0.6-0.3,0.6-0.6v-0.1
				C20.2,12.9,20,12.7,19.6,12.7z"/>
			<path class="st1" d="M19.6,15.8h-2.5c-0.3,0-0.6-0.3-0.6-0.6v-0.1c0-0.3,0.3-0.6,0.6-0.6h2.5c0.3,0,0.6,0.3,0.6,0.6v0.1
				C20.2,15.5,20,15.8,19.6,15.8z"/>
			<path class="st1" d="M24.5,9.1h-5.9c-0.3,0-0.6,0.3-0.6,0.6v0.1c0,0.3,0.3,0.6,0.6,0.6h5.9c0.3,0,0.6-0.3,0.6-0.6V9.6
				C25.1,9.3,24.9,9.1,24.5,9.1z"/>
			<path class="st1" d="M22.5,12.2h-5.4c-0.3,0-0.6-0.3-0.6-0.6v-0.1c0-0.3,0.3-0.6,0.6-0.6h5.4c0.3,0,0.6,0.3,0.6,0.6v0.1
				C23.1,11.9,22.8,12.2,22.5,12.2z"/>
			<path class="st1" d="M28.6,5.4h-6.3c-0.3,0-0.6,0.3-0.6,0.6v0.1c0,0.3,0.3,0.6,0.6,0.6h6.3c0.3,0,0.6-0.3,0.6-0.6V6
				C29.2,5.7,28.9,5.4,28.6,5.4z"/>
			<path class="st1" d="M26.7,8.5h-6.3c-0.3,0-0.6-0.3-0.6-0.6V7.8c0-0.3,0.3-0.6,0.6-0.6h6.3c0.3,0,0.6,0.3,0.6,0.6V8
				C27.3,8.3,27,8.5,26.7,8.5z"/>
			<path class="st1" d="M29.1,1.8h-4.2c-0.3,0-0.6,0.3-0.6,0.6v0.1c0,0.3,0.3,0.6,0.6,0.6h4.2c0.3,0,0.6-0.3,0.6-0.6V2.4
				C29.7,2.1,29.4,1.8,29.1,1.8z"/>
			<path class="st1" d="M30.2,4.9h-6.4c-0.3,0-0.6-0.3-0.6-0.6V4.2c0-0.3,0.3-0.6,0.6-0.6h6.4c0.3,0,0.6,0.3,0.6,0.6v0.1
				C30.8,4.7,30.5,4.9,30.2,4.9z"/>
		</g>
	</g>
</g>
</svg>
